<svg width="2143" height="1388" xmlns="http://www.w3.org/2000/svg" xmlns:xlink="http://www.w3.org/1999/xlink" overflow="hidden"><defs><clipPath id="clip0"><rect x="1279" y="2231" width="2143" height="1388"/></clipPath><clipPath id="clip1"><rect x="1278" y="2230" width="2144" height="1388"/></clipPath><clipPath id="clip2"><rect x="1278" y="2230" width="2144" height="1388"/></clipPath><clipPath id="clip3"><rect x="1278" y="2230" width="2144" height="1388"/></clipPath><clipPath id="clip4"><rect x="1544" y="2282" width="1793" height="1213"/></clipPath><clipPath id="clip5"><rect x="1544" y="2282" width="1793" height="1213"/></clipPath><clipPath id="clip6"><rect x="1278" y="2230" width="2144" height="1388"/></clipPath><clipPath id="clip7"><rect x="1278" y="2230" width="2144" height="1388"/></clipPath><clipPath id="clip8"><rect x="1278" y="2230" width="2144" height="1388"/></clipPath><clipPath id="clip9"><rect x="1278" y="2230" width="2144" height="1388"/></clipPath><clipPath id="clip10"><rect x="1278" y="2230" width="2144" height="1388"/></clipPath><clipPath id="clip11"><rect x="1278" y="2230" width="2144" height="1388"/></clipPath><clipPath id="clip12"><rect x="1278" y="2230" width="2144" height="1388"/></clipPath><clipPath id="clip13"><rect x="1278" y="2230" width="2144" height="1388"/></clipPath><clipPath id="clip14"><rect x="1278" y="2230" width="2144" height="1388"/></clipPath><clipPath id="clip15"><rect x="1278" y="2230" width="2144" height="1388"/></clipPath><clipPath id="clip16"><rect x="1278" y="2230" width="2144" height="1388"/></clipPath><clipPath id="clip17"><rect x="1278" y="2230" width="2144" height="1388"/></clipPath><clipPath id="clip18"><rect x="1278" y="2230" width="2144" height="1388"/></clipPath></defs><g clip-path="url(#clip0)" transform="translate(-1279 -2231)"><rect x="1279" y="2231" width="2143" height="1388" fill="#FFFFFF"/><g clip-path="url(#clip1)"><path d="M0 0 0.000360892 1210" stroke="#000000" stroke-width="3.4375" stroke-linejoin="round" stroke-miterlimit="10" fill="none" fill-rule="evenodd" transform="matrix(1 0 0 -1 1544.5 3492.5)"/></g><g clip-path="url(#clip2)"><path d="M1527.5 3492.5 1544.5 3492.5M1527.5 3290.61 1544.5 3290.61M1527.5 3088.6 1544.5 3088.6M1527.5 2887.59 1544.5 2887.59M1527.5 2685.59 1544.5 2685.59M1527.5 2484.58 1544.5 2484.58M1527.5 2282.5 1544.5 2282.5" stroke="#000000" stroke-width="3.4375" stroke-linejoin="round" stroke-miterlimit="10" fill="none"/></g><g clip-path="url(#clip3)"><path d="M1544.5 3492.5 3334.5 3492.5" stroke="#000000" stroke-width="3.4375" stroke-linejoin="round" stroke-miterlimit="10" fill="none" fill-rule="evenodd"/></g><g clip-path="url(#clip4)"><path d="M1545.5 3071.6 1549.55 3049.6 1552.55 3036.6 1555.55 3025.6 1559.55 3003.6 1562.55 2991.6 1565.55 2990.6 1568.55 2989.6 1572.55 2985.6 1575.55 2985.6 1578.55 2980.6 1582.55 2955.6 1585.55 2954.6 1588.55 2938.6 1591.55 2930.6 1595.55 2931.6 1598.55 2941.6 1601.55 2937.6 1605.55 2936.6 1608.55 2933.6 1611.55 2933.6 1614.55 2927.6 1618.55 2920.6 1621.55 2919.6 1624.55 2913.6 1628.55 2900.6 1631.55 2889.59 1634.55 2879.59 1637.55 2869.59 1641.55 2857.59 1644.55 2863.59 1647.55 2559.58 1651.55 2562.58 1654.55 2558.58 1657.55 2557.58 1660.55 2557.58 1664.55 2563.58 1667.55 2567.58 1670.55 2562.58 1674.56 2561.58 1677.56 2557.58 1680.56 2552.58 1683.56 2556.58 1687.56 2554.58 1690.56 2555.58 1693.56 2551.58 1696.56 2553.58 1700.56 2552.58 1703.56 2554.58 1706.56 2559.58 1710.56 2567.58 1713.56 2564.58 1716.56 2565.58 1719.56 2566.58 1723.56 2565.58 1726.56 2564.58 1729.56 2563.58 1733.56 2560.58 1736.56 2560.58 1739.56 2545.5 1742.56 2876.59 1746.56 2818.59 1749.56 2726.59 1752.56 2736.59 1756.56 2735.59 1759.56 2734.59 1762.56 2731.59 1765.56 2730.59 1769.56 2730.59 1772.56 2730.59 1775.56 2762.59 1779.56 2749.59 1782.56 2734.59 1785.56 2734.59 1788.56 2696.59 1792.56 2692.59 1795.56 2690.59 1798.56 2696.59 1802.56 2697.59 1805.56 2695.59 1808.56 2699.59 1811.56 2782.59 1815.56 2782.59 1818.56 2785.59 1821.56 2729.59 1825.56 2734.59 1828.56 2704.59 1831.56 2681.59 1834.56 2785.59 1838.56 2780.59 1841.56 2734.59 1844.56 2728.59 1848.56 2724.59 1851.56 2718.59 1854.56 2739.59 1857.56 2733.59 1861.56 2734.59 1864.56 2738.59 1867.56 2736.59 1871.56 2734.59 1874.56 2732.59 1877.56 2725.59 1880.56 2723.59 1884.56 2722.59 1887.56 2721.59 1890.56 2720.59 1894.56 2719.59 1897.56 2713.59 1900.56 2711.59 1903.56 2709.59 1907.56 2670.59 1910.56 2668.59 1913.56 2596.59 1917.56 2598.59 1920.56 2592.59 1923.56 2587.59 1926.56 2590.59 1930.56 2593.59 1933.56 2592.59 1936.56 2595.59 1940.56 2592.59 1943.56 2605.59 1946.56 2610.59 1949.56 2618.59 1953.56 2618.59 1956.56 2611.59 1959.56 2609.59 1963.56 2608.59 1966.56 2605.59 1969.56 2597.59 1972.56 2599.59 1976.57 2600.59 1979.57 2595.59 1982.57 2595.59 1985.57 2595.59 1989.57 2597.59 1992.57 2603.59 1995.57 2602.59 1999.57 2595.59 2002.57 2684.59 2005.57 2681.59 2008.57 2682.59 2012.57 2682.59 2015.57 2680.59 2018.57 2679.59 2022.57 2677.59 2025.57 2677.59 2028.57 2675.59 2031.57 2675.59 2035.57 2671.59 2038.57 2672.59 2041.57 2675.59 2045.57 2675.59 2048.57 2678.59 2051.57 2681.59 2054.57 2684.59 2058.57 2689.59 2061.57 2700.59 2064.57 2708.59 2068.57 2712.59 2071.57 2711.59 2074.57 2711.59 2077.57 2713.59 2081.57 2715.59 2084.57 2716.59 2087.57 2720.59 2091.57 2721.59 2094.57 2721.59 2097.57 2721.59 2100.57 2659.59 2104.57 2655.59 2107.57 2653.59 2110.57 2648.59 2114.57 2644.59 2117.57 2640.59 2120.57 2640.59 2123.57 2637.59 2127.57 2632.59 2130.57 2631.59 2133.57 2640.59 2137.57 2635.59 2140.57 2631.59 2143.57 2629.59 2146.57 2627.59 2150.57 2628.59 2153.57 2630.59 2156.57 2629.59 2160.57 2629.59 2163.57 2632.59 2166.57 2635.59 2169.57 2635.59 2173.57 2636.59 2176.57 2630.59 2179.57 2628.59 2183.57 2628.59 2186.57 2621.59 2189.57 2628.59 2192.57 2684.59 2196.57 2670.59 2199.57 2683.59 2202.57 2656.59 2206.57 2645.59 2209.57 2631.59 2212.57 2627.59 2215.57 2646.59 2219.57 2649.59 2222.57 2649.59 2225.57 2652.59 2229.57 2654.59 2232.57 2666.59 2235.57 2658.59 2238.57 2669.59 2242.57 2669.59 2245.57 2685.59 2248.57 2676.59 2252.57 2682.59 2255.57 2677.59 2258.57 2681.59 2261.57 2683.59 2265.57 2685.59 2268.57 2688.59 2271.57 2676.59 2274.57 2677.59 2278.57 2677.59 2281.57 2677.59 2284.58 2653.59 2288.58 2643.59 2291.58 2637.59 2294.58 2629.59 2297.58 2626.59 2301.58 2616.59 2304.58 2613.59 2307.58 2608.59 2311.58 2606.59 2314.58 2608.59 2317.58 2605.59 2320.58 2612.59 2324.58 2611.59 2327.58 2617.59 2330.58 2626.59 2334.58 2633.59 2337.58 2638.59 2340.58 2646.59 2343.58 2651.59 2347.58 2650.59 2350.58 2649.59 2353.58 2649.59 2357.58 2649.59 2360.58 2655.59 2363.58 2657.59 2366.58 2659.59 2370.58 2658.59 2373.58 2957.6 2376.58 2886.59 2380.58 2887.59 2383.58 2712.59 2386.58 2683.59 2389.58 2712.59 2393.58 2659.59 2396.58 2662.59 2399.58 2660.59 2403.58 2656.59 2406.58 2654.59 2409.58 2643.59 2412.58 2639.59 2416.58 2636.59 2419.58 2633.59 2422.58 2633.59 2426.58 2627.59 2429.58 2624.59 2432.58 2619.59 2435.58 2620.59 2439.58 2622.59 2442.58 2625.59 2445.58 2624.59 2449.58 2631.59 2452.58 2641.59 2455.58 2646.59 2458.58 2647.59 2462.58 2648.59 2465.58 2643.59 2468.58 2647.59 2472.58 2642.59 2475.58 2641.59 2478.58 2930.6 2481.58 2930.6 2485.58 2930.6 2488.58 2930.6 2491.58 2930.6 2495.58 2930.6 2498.58 2930.6 2501.58 2930.6 2504.58 2930.6 2508.58 2930.6 2511.58 2930.6 2514.58 2930.6 2518.58 2930.6 2521.58 2930.6 2524.58 2930.6 2527.58 2930.6 2531.58 2930.6 2534.58 2700.59 2537.58 2706.59 2541.58 2691.59 2544.58 2696.59 2547.58 2692.59 2550.58 2689.59 2554.58 2588.59 2557.58 2578.58 2560.58 2565.58 2563.58 2571.58 2567.58 2575.58 2570.58 2577.58 2573.58 2576.58 2577.58 2707.59 2580.58 2640.59 2583.58 2630.59 2586.58 2622.59 2590.59 2620.59 2593.59 2603.59 2596.59 2588.59 2600.59 2589.59 2603.59 2593.59 2606.59 2590.59 2609.59 2605.59 2613.59 2609.59 2616.59 2609.59 2619.59 2613.59 2623.59 2623.59 2626.59 2626.59 2629.59 2638.59 2632.59 2648.59 2636.59 2655.59 2639.59 2661.59 2642.59 2664.59 2646.59 2661.59 2649.59 2657.59 2652.59 2653.59 2655.59 2652.59 2659.59 2654.59 2662.59 2661.59 2665.59 2811.59 2669.59 2787.59 2672.59 2784.59 2675.59 2572.58 2678.59 2555.58 2682.59 2599.59 2685.59 2636.59 2688.59 2654.59 2692.59 2696.59 2695.59 2689.59 2698.59 2699.59 2701.59 2714.59 2705.59 2712.59 2708.59 2709.59 2711.59 2702.59 2715.59 2697.59 2718.59 2695.59 2721.59 2698.59 2724.59 2706.59 2728.59 2705.59 2731.59 2700.59 2734.59 2694.59 2738.59 2700.59 2741.59 2709.59 2744.59 2711.59 2747.59 2711.59 2751.59 2714.59 2754.59 2710.59 2757.59 2705.59 2761.59 2696.59 2764.59 2698.59 2767.59 2689.59 2770.59 2683.59 2774.59 2678.59 2777.59 2711.59 2780.59 2710.59 2784.59 2686.59 2787.59 2677.59 2790.59 2679.59 2793.59 2806.59 2797.59 2806.59 2800.59 2699.59 2803.59 2639.59 2807.59 2639.59 2810.59 2721.59 2813.59 3268.5 2816.59 3178.6 2820.59 3083.6 2823.59 2934.6 2826.59 2897.6 2830.59 2845.59 2833.59 2578.58 2836.59 2575.58 2839.59 2577.58 2843.59 2599.59 2846.59 2600.59 2849.59 2600.59 2853.59 2600.59 2856.59 2604.59 2859.59 2606.59 2862.59 2608.59 2866.59 2610.59 2869.59 2610.59 2872.59 2627.59 2875.59 2637.59 2879.59 2640.59 2882.59 2644.59 2885.59 2703.59 2889.59 2697.59 2892.6 2810.59 2895.6 2788.59 2898.6 2774.59 2902.6 2774.59 2905.6 2780.59 2908.6 2772.59 2912.6 2764.59 2915.6 2758.59 2918.6 2753.59 2921.6 2751.59 2925.6 2749.59 2928.6 2745.59 2931.6 2730.59 2935.6 2726.59 2938.6 2723.59 2941.6 2719.59 2944.6 2715.59 2948.6 2730.59 2951.6 2711.59 2954.6 2709.59 2958.6 2684.59 2961.6 2682.59 2964.6 2679.59 2967.6 2683.59 2971.6 2670.59 2974.6 2666.59 2977.6 2662.59 2981.6 2668.59 2984.6 2668.59 2987.6 2670.59 2990.6 2672.59 2994.6 2751.59 2997.6 2760.59 3000.6 2761.59 3004.6 2761.59 3007.6 2755.59 3010.6 2756.59 3013.6 2744.59 3017.6 2735.59 3020.6 2741.59 3023.6 2733.59 3027.6 2732.59 3030.6 2752.59 3033.6 2763.59 3036.6 2774.59 3040.6 2777.59 3043.6 2733.59 3046.6 2732.59 3050.6 2731.59 3053.6 2732.59 3056.6 2735.59 3059.6 2734.59 3063.6 2733.59 3066.6 2734.59 3069.6 2747.59 3073.6 2765.59 3076.6 2755.59 3079.6 2740.59 3082.6 2735.59 3086.6 2727.59 3089.6 2722.59 3092.6 2716.59 3096.6 2769.59 3099.6 2742.59 3102.6 2748.59 3105.6 2779.59 3109.6 2748.59 3112.6 2713.59 3115.6 2724.59 3119.6 2721.59 3122.6 2949.6 3125.6 2920.6 3128.6 2917.6 3132.6 2915.6 3135.6 2830.59 3138.6 2822.59 3142.6 2643.59 3145.6 2644.59 3148.6 2638.59 3151.6 2624.59 3155.6 2622.59 3158.6 2627.59 3161.6 2622.59 3164.6 2614.59 3168.6 2613.59 3171.6 2611.59 3174.6 2606.59 3178.6 2607.59 3181.6 2605.59 3184.6 2610.59 3187.6 2606.59 3191.6 2606.59 3194.6 2606.59 3197.6 2603.59 3201.61 2605.59 3204.61 2609.59 3207.61 2615.59 3210.61 2616.59 3214.61 2623.59 3217.61 2632.59 3220.61 2631.59 3224.61 2633.59 3227.61 2634.59 3230.61 2637.59 3233.61 2638.59 3237.61 2639.59 3240.61 2629.59 3243.61 2785.59 3247.61 2761.59 3250.61 2757.59 3253.61 2719.59 3256.61 2716.59 3260.61 2728.59 3263.61 2723.59 3266.61 2718.59 3270.61 2729.59 3273.61 2734.59 3276.61 2736.59 3279.61 2736.59 3283.61 2740.59 3286.61 2734.59 3289.61 2723.59 3293.61 2681.59 3296.61 2679.59 3299.61 2678.59 3302.61 2871.59 3306.61 2833.59 3309.61 2833.59 3312.61 2835.59 3316.61 2841.59 3319.61 2843.59 3322.61 2826.59 3325.61 2824.59 3329.61 3054.6 3332.5 3053.6" stroke="#9D90A0" stroke-width="4.58333" stroke-linecap="round" stroke-linejoin="round" stroke-miterlimit="10" fill="none"/></g><g clip-path="url(#clip5)"><path d="M1545.5 3057.6 1549.55 3016.6 1552.55 3027.6 1555.55 3007.6 1559.55 2999.6 1562.55 3003.6 1565.55 2994.6 1568.55 2991.6 1572.55 2980.6 1575.55 2974.6 1578.55 2970.6 1582.55 2967.6 1585.55 2961.6 1588.55 2959.6 1591.55 2943.6 1595.55 2950.6 1598.55 2936.6 1601.55 2926.6 1605.55 2933.6 1608.55 2924.6 1611.55 2916.6 1614.55 2908.6 1618.55 2906.6 1621.55 2909.6 1624.55 2906.6 1628.55 2904.6 1631.55 2891.6 1634.55 2901.6 1637.55 2895.6 1641.55 2892.6 1644.55 2882.59 1647.55 2583.58 1651.55 2549.58 1654.55 2567.58 1657.55 2555.58 1660.55 2554.58 1664.55 2565.58 1667.55 2560.58 1670.55 2561.58 1674.56 2552.58 1677.56 2549.58 1680.56 2548.58 1683.56 2552.58 1687.56 2551.58 1690.56 2554.58 1693.56 2544.5 1696.56 2557.58 1700.56 2550.58 1703.56 2550.58 1706.56 2564.58 1710.56 2565.58 1713.56 2564.58 1716.56 2561.58 1719.56 2564.58 1723.56 2569.58 1726.56 2568.58 1729.56 2565.58 1733.56 2554.58 1736.56 2566.58 1739.56 2563.58 1742.56 2867.59 1746.56 2827.59 1749.56 2715.59 1752.56 2718.59 1756.56 2717.59 1759.56 2722.59 1762.56 2710.59 1765.56 2724.59 1769.56 2716.59 1772.56 2713.59 1775.56 2723.59 1779.56 2722.59 1782.56 2717.59 1785.56 2713.59 1788.56 2718.59 1792.56 2722.59 1795.56 2724.59 1798.56 2729.59 1802.56 2722.59 1805.56 2735.59 1808.56 2733.59 1811.56 2788.59 1815.56 2777.59 1818.56 2768.59 1821.56 2719.59 1825.56 2714.59 1828.56 2720.59 1831.56 2710.59 1834.56 2708.59 1838.56 2727.59 1841.56 2721.59 1844.56 2720.59 1848.56 2738.59 1851.56 2731.59 1854.56 2731.59 1857.56 2722.59 1861.56 2721.59 1864.56 2719.59 1867.56 2724.59 1871.56 2725.59 1874.56 2729.59 1877.56 2719.59 1880.56 2732.59 1884.56 2723.59 1887.56 2722.59 1890.56 2734.59 1894.56 2735.59 1897.56 2732.59 1900.56 2725.59 1903.56 2728.59 1907.56 2727.59 1910.56 2726.59 1913.56 2622.59 1917.56 2604.59 1920.56 2601.59 1923.56 2604.59 1926.56 2596.59 1930.56 2594.59 1933.56 2595.59 1936.56 2596.59 1940.56 2596.59 1943.56 2600.59 1946.56 2590.59 1949.56 2606.59 1953.56 2598.59 1956.56 2595.59 1959.56 2607.59 1963.56 2608.59 1966.56 2604.59 1969.56 2597.59 1972.56 2601.59 1976.57 2605.59 1979.57 2603.59 1982.57 2602.59 1985.57 2588.59 1989.57 2599.59 1992.57 2596.59 1995.57 2599.59 1999.57 2592.59 2002.57 2708.59 2005.57 2671.59 2008.57 2691.59 2012.57 2680.59 2015.57 2681.59 2018.57 2691.59 2022.57 2686.59 2025.57 2689.59 2028.57 2684.59 2031.57 2684.59 2035.57 2683.59 2038.57 2686.59 2041.57 2685.59 2045.57 2689.59 2048.57 2679.59 2051.57 2693.59 2054.57 2687.59 2058.57 2686.59 2061.57 2701.59 2064.57 2704.59 2068.57 2700.59 2071.57 2698.59 2074.57 2700.59 2077.57 2704.59 2081.57 2705.59 2084.57 2703.59 2087.57 2694.59 2091.57 2707.59 2094.57 2706.59 2097.57 2708.59 2100.57 2642.59 2104.57 2632.59 2107.57 2642.59 2110.57 2638.59 2114.57 2640.59 2117.57 2631.59 2120.57 2629.59 2123.57 2626.59 2127.57 2627.59 2130.57 2626.59 2133.57 2633.59 2137.57 2624.59 2140.57 2638.59 2143.57 2630.59 2146.57 2628.59 2150.57 2641.59 2153.57 2641.59 2156.57 2639.59 2160.57 2635.59 2163.57 2640.59 2166.57 2644.59 2169.57 2644.59 2173.57 2643.59 2176.57 2629.59 2179.57 2641.59 2183.57 2638.59 2186.57 2637.59 2189.57 2633.59 2192.57 2654.59 2196.57 2670.59 2199.57 2662.59 2202.57 2669.59 2206.57 2662.59 2209.57 2661.59 2212.57 2678.59 2215.57 2682.59 2219.57 2677.59 2222.57 2685.59 2225.57 2686.59 2229.57 2690.59 2232.57 2673.59 2235.57 2684.59 2238.57 2670.59 2242.57 2666.59 2245.57 2675.59 2248.57 2677.59 2252.57 2668.59 2255.57 2658.59 2258.57 2659.59 2261.57 2661.59 2265.57 2657.59 2268.57 2652.59 2271.57 2640.59 2274.57 2651.59 2278.57 2651.59 2281.57 2657.59 2284.58 2660.59 2288.58 2642.59 2291.58 2636.59 2294.58 2637.59 2297.58 2629.59 2301.58 2628.59 2304.58 2625.59 2307.58 2626.59 2311.58 2624.59 2314.58 2626.59 2317.58 2616.59 2320.58 2632.59 2324.58 2624.59 2327.58 2624.59 2330.58 2637.59 2334.58 2640.59 2337.58 2637.59 2340.58 2635.59 2343.58 2638.59 2347.58 2642.59 2350.58 2641.59 2353.58 2639.59 2357.58 2626.59 2360.58 2638.59 2363.58 2636.59 2366.58 2637.59 2370.58 2633.59 2373.58 2909.6 2376.58 2904.6 2380.58 2916.6 2383.58 2664.59 2386.58 2628.59 2389.58 2647.59 2393.58 2637.59 2396.58 2646.59 2399.58 2642.59 2403.58 2644.59 2406.58 2635.59 2409.58 2635.59 2412.58 2633.59 2416.58 2635.59 2419.58 2635.59 2422.58 2640.59 2426.58 2633.59 2429.58 2648.59 2432.58 2640.59 2435.58 2638.59 2439.58 2650.59 2442.58 2651.59 2445.58 2651.59 2449.58 2647.59 2452.58 2653.59 2455.58 2660.59 2458.58 2662.59 2462.58 2661.59 2465.58 2645.59 2468.58 2657.59 2472.58 2654.59 2475.58 2655.59 2478.58 2944.6 2481.58 2944.6 2485.58 2936.6 2488.58 2936.6 2491.58 2923.6 2495.58 2935.6 2498.58 2927.6 2501.58 2925.6 2504.58 2935.6 2508.58 2930.6 2511.58 2925.6 2514.58 2922.6 2518.58 2926.6 2521.58 2929.6 2524.58 2927.6 2527.58 2928.6 2531.58 2921.6 2534.58 2697.59 2537.58 2694.59 2541.58 2699.59 2544.58 2700.59 2547.58 2699.59 2550.58 2685.59 2554.58 2578.58 2557.58 2614.59 2560.58 2566.58 2563.58 2571.58 2567.58 2556.58 2570.58 2569.58 2573.58 2547.58 2577.58 2651.59 2580.58 2642.59 2583.58 2643.59 2586.58 2634.59 2590.59 2630.59 2593.59 2630.59 2596.59 2628.59 2600.59 2625.59 2603.59 2626.59 2606.59 2618.59 2609.59 2632.59 2613.59 2625.59 2616.59 2619.59 2619.59 2630.59 2623.59 2627.59 2626.59 2630.59 2629.59 2631.59 2632.59 2636.59 2636.59 2643.59 2639.59 2643.59 2642.59 2641.59 2646.59 2628.59 2649.59 2638.59 2652.59 2633.59 2655.59 2634.59 2659.59 2625.59 2662.59 2642.59 2665.59 2835.59 2669.59 2783.59 2672.59 2721.59 2675.59 2712.59 2678.59 2724.59 2682.59 2709.59 2685.59 2706.59 2688.59 2711.59 2692.59 2702.59 2695.59 2700.59 2698.59 2689.59 2701.59 2694.59 2705.59 2688.59 2708.59 2685.59 2711.59 2682.59 2715.59 2682.59 2718.59 2673.59 2721.59 2684.59 2724.59 2677.59 2728.59 2674.59 2731.59 2683.59 2734.59 2680.59 2738.59 2682.59 2741.59 2676.59 2744.59 2679.59 2747.59 2684.59 2751.59 2684.59 2754.59 2682.59 2757.59 2666.59 2761.59 2678.59 2764.59 2675.59 2767.59 2675.59 2770.59 2601.59 2774.59 2747.59 2777.59 2724.59 2780.59 2667.59 2784.59 2730.59 2787.59 2676.59 2790.59 2720.59 2793.59 2764.59 2797.59 2742.59 2800.59 2715.59 2803.59 2687.59 2807.59 2639.59 2810.59 2893.6 2813.59 3150.5 2816.59 3124.6 2820.59 3024.6 2823.59 2993.6 2826.59 2897.6 2830.59 2849.59 2833.59 2621.59 2836.59 2598.59 2839.59 2618.59 2843.59 2607.59 2846.59 2604.59 2849.59 2599.59 2853.59 2601.59 2856.59 2601.59 2859.59 2607.59 2862.59 2603.59 2866.59 2601.59 2869.59 2593.59 2872.59 2606.59 2875.59 2604.59 2879.59 2605.59 2882.59 2612.59 2885.59 2735.59 2889.59 2742.59 2892.6 2736.59 2895.6 2750.59 2898.6 2734.59 2902.6 2730.59 2905.6 2736.59 2908.6 2728.59 2912.6 2726.59 2915.6 2715.59 2918.6 2724.59 2921.6 2723.59 2925.6 2721.59 2928.6 2722.59 2931.6 2725.59 2935.6 2714.59 2938.6 2726.59 2941.6 2718.59 2944.6 2715.59 2948.6 2725.59 2951.6 2720.59 2954.6 2723.59 2958.6 2717.59 2961.6 2718.59 2964.6 2721.59 2967.6 2721.59 2971.6 2717.59 2974.6 2707.59 2977.6 2720.59 2981.6 2716.59 2984.6 2715.59 2987.6 2704.59 2990.6 2670.59 2994.6 2758.59 2997.6 2783.59 3000.6 2771.59 3004.6 2769.59 3007.6 2777.59 3010.6 2768.59 3013.6 2767.59 3017.6 2756.59 3020.6 2752.59 3023.6 2751.59 3027.6 2751.59 3030.6 2749.59 3033.6 2751.59 3036.6 2741.59 3040.6 2752.59 3043.6 2746.59 3046.6 2741.59 3050.6 2748.59 3053.6 2741.59 3056.6 2737.59 3059.6 2730.59 3063.6 2729.59 3066.6 2733.59 3069.6 2732.59 3073.6 2729.59 3076.6 2715.59 3079.6 2726.59 3082.6 2721.59 3086.6 2720.59 3089.6 2708.59 3092.6 2673.59 3096.6 2813.59 3099.6 2728.59 3102.6 2762.59 3105.6 2755.59 3109.6 2757.59 3112.6 2731.59 3115.6 2722.59 3119.6 2793.59 3122.6 2922.6 3125.6 2911.6 3128.6 2906.6 3132.6 2891.6 3135.6 2833.59 3138.6 2819.59 3142.6 2652.59 3145.6 2616.59 3148.6 2635.59 3151.6 2624.59 3155.6 2623.59 3158.6 2633.59 3161.6 2628.59 3164.6 2628.59 3168.6 2617.59 3171.6 2614.59 3174.6 2611.59 3178.6 2612.59 3181.6 2611.59 3184.6 2618.59 3187.6 2608.59 3191.6 2621.59 3194.6 2612.59 3197.6 2608.59 3201.61 2619.59 3204.61 2621.59 3207.61 2621.59 3210.61 2618.59 3214.61 2622.59 3217.61 2626.59 3220.61 2628.59 3224.61 2627.59 3227.61 2614.59 3230.61 2625.59 3233.61 2621.59 3237.61 2623.59 3240.61 2615.59 3243.61 2782.59 3247.61 2767.59 3250.61 2754.59 3253.61 2719.59 3256.61 2715.59 3260.61 2728.59 3263.61 2728.59 3266.61 2720.59 3270.61 2715.59 3273.61 2718.59 3276.61 2722.59 3279.61 2720.59 3283.61 2718.59 3286.61 2708.59 3289.61 2721.59 3293.61 2717.59 3296.61 2717.59 3299.61 2706.59 3302.61 2855.59 3306.61 2839.59 3309.61 2841.59 3312.61 2829.59 3316.61 2842.59 3319.61 2849.59 3322.61 2833.59 3325.61 2817.59 3329.61 3063.6 3332.5 3044.6" stroke="#0E58C4" stroke-width="4.58333" stroke-linecap="round" stroke-linejoin="round" stroke-miterlimit="10" stroke-dasharray="13.75 18.3333" fill="none"/></g><g clip-path="url(#clip6)"><text font-family="Arial,Arial_MSFontService,sans-serif" font-weight="400" font-size="55" transform="matrix(1 0 0 1 1466.41 3510)">2</text></g><g clip-path="url(#clip7)"><text font-family="Arial,Arial_MSFontService,sans-serif" font-weight="400" font-size="55" transform="matrix(1 0 0 1 1466.41 3308)">3</text></g><g clip-path="url(#clip8)"><text font-family="Arial,Arial_MSFontService,sans-serif" font-weight="400" font-size="55" transform="matrix(1 0 0 1 1466.41 3107)">4</text></g><g clip-path="url(#clip9)"><text font-family="Arial,Arial_MSFontService,sans-serif" font-weight="400" font-size="55" transform="matrix(1 0 0 1 1466.41 2905)">5</text></g><g clip-path="url(#clip10)"><text font-family="Arial,Arial_MSFontService,sans-serif" font-weight="400" font-size="55" transform="matrix(1 0 0 1 1466.41 2704)">6</text></g><g clip-path="url(#clip11)"><text font-family="Arial,Arial_MSFontService,sans-serif" font-weight="400" font-size="55" transform="matrix(1 0 0 1 1466.41 2502)">7</text></g><g clip-path="url(#clip12)"><text font-family="Arial,Arial_MSFontService,sans-serif" font-weight="400" font-size="55" transform="matrix(1 0 0 1 1466.41 2300)">8</text></g><g clip-path="url(#clip13)"><text font-family="Arial,Arial_MSFontService,sans-serif" font-weight="400" font-size="55" transform="matrix(6.12323e-17 -1 1 6.12323e-17 1406.15 3470)">MSW generation per capita (kg/person/year)</text></g><g clip-path="url(#clip14)"><text font-family="Arial,Arial_MSFontService,sans-serif" font-weight="400" font-size="55" transform="matrix(1 0 0 1 2388.29 3581)">Year</text></g><g clip-path="url(#clip15)"><path d="M2632.5 3427.5 2748.5 3427.5" stroke="#9D90A0" stroke-width="4.58333" stroke-linecap="round" stroke-linejoin="round" stroke-miterlimit="10" fill="none" fill-rule="evenodd"/></g><g clip-path="url(#clip16)"><text font-family="Arial,Arial_MSFontService,sans-serif" font-weight="400" font-size="55" transform="matrix(1 0 0 1 2761.01 3445)">Actual</text></g><g clip-path="url(#clip17)"><path d="M2988.5 3427.5 3103.5 3427.5" stroke="#0E58C4" stroke-width="4.58333" stroke-linecap="round" stroke-linejoin="round" stroke-miterlimit="10" stroke-dasharray="13.75 18.3333" fill="none" fill-rule="evenodd"/></g><g clip-path="url(#clip18)"><text font-family="Arial,Arial_MSFontService,sans-serif" font-weight="400" font-size="55" transform="matrix(1 0 0 1 3116.39 3445)">Fitted</text></g></g></svg>
